<mxfile host="app.diagrams.net" modified="2024-05-07T06:39:10.014Z" agent="Mozilla/5.0 (Windows NT 10.0; Win64; x64) AppleWebKit/537.36 (KHTML, like Gecko) Chrome/124.0.0.0 Safari/537.36 Edg/124.0.0.0" version="24.3.1" etag="AqdYzLCE-eW7PxRJgFcC" type="github">
  <diagram name="Trang-1" id="ag1tc-UoSruxaUzxOprD">
    <mxGraphModel>
      <root>
        <mxCell id="0" />
        <mxCell id="1" parent="0" />
      </root>
    </mxGraphModel>
  </diagram>
</mxfile>
